<?xml version="1.0" encoding="UTF-8" standalone="no"?>
<svg width="25px" height="29px" viewBox="0 0 25 29" version="1.1" xmlns="http://www.w3.org/2000/svg" xmlns:xlink="http://www.w3.org/1999/xlink">
    <!-- Generator: Sketch 42 (36781) - http://www.bohemiancoding.com/sketch -->
    <title>Combined Shape Copy</title>
    <desc>Created with Sketch.</desc>
    <defs></defs>
    <g id="Home-Landing-Page" stroke="none" stroke-width="1" fill="none" fill-rule="evenodd" stroke-linecap="square">
        <g id="Desktop-HD" transform="translate(-15.000000, -16.000000)" stroke-width="3" stroke="#4990E2">
            <g id="Nav-bar-hd">
                <path d="M20,42.9225027 C20,42.9225027 23.2883129,40.4633663 24.7477607,37.6118387 C25.9885553,35.1875244 26.8815823,33.0000155 27.8097443,33.0000155 C28.7379062,33.0000155 28.766392,32.9597369 30.6782515,36.9890722 C32.5901111,41.0184075 35,42.9225027 35,42.9225027 L27.8097443,42.9225027 L20,42.9225027 Z M28,28 C25.2385763,28 23,25.7614237 23,23 C23,20.2385763 25.2385763,18 28,18 C30.7614237,18 33,20.2385763 33,23 C33,25.7614237 30.7614237,28 28,28 Z" id="Combined-Shape-Copy"></path>
            </g>
        </g>
    </g>
</svg>